<svg width="41" height="48" viewBox="0 0 41 48" fill="none" xmlns="http://www.w3.org/2000/svg">
<path d="M41 35.6965C41.0001 34.5075 40.5333 33.3661 39.7004 32.5191C38.8675 31.672 37.7354 31.1872 36.5486 31.1693C33.9388 28.4134 32.7187 25.5104 32.7187 22.0585V18.3575C32.7141 16.1553 32.1113 13.9958 30.9748 12.1106C29.8383 10.2255 28.2111 8.68574 26.2676 7.65652V5.77776C26.2676 4.2454 25.6599 2.77581 24.5783 1.69227C23.4967 0.608726 22.0297 0 20.5 0C18.9703 0 17.5033 0.608726 16.4217 1.69227C15.3401 2.77581 14.7324 4.2454 14.7324 5.77776V7.73008C12.7822 8.84012 11.1588 10.4459 10.0262 12.3854C8.89351 14.3248 8.29165 16.5293 8.28135 18.7763V22.0585C8.28135 25.5048 7.06117 28.4134 4.45136 31.1693C3.2646 31.1872 2.13247 31.672 1.29957 32.5191C0.466673 33.3661 -0.000133505 34.5075 2.86409e-08 35.6965V37.0037C2.86409e-08 38.2043 0.476124 39.3558 1.32363 40.2048C2.17113 41.0539 3.3206 41.5308 4.51915 41.5308H13.7721C13.8433 43.2705 14.5832 44.9153 15.8372 46.121C17.0911 47.3267 18.7619 48 20.5 48C22.2381 48 23.9089 47.3267 25.1628 46.121C26.4168 44.9153 27.1567 43.2705 27.2279 41.5308H36.4808C37.6794 41.5308 38.8289 41.0539 39.6764 40.2048C40.5239 39.3558 41 38.2043 41 37.0037V35.6965ZM16.992 5.77776C16.992 4.84574 17.3616 3.95189 18.0195 3.29285C18.6774 2.63381 19.5696 2.26357 20.5 2.26357C21.4304 2.26357 22.3226 2.63381 22.9805 3.29285C23.6384 3.95189 24.008 4.84574 24.008 5.77776V6.73411C23.8611 6.68884 23.7142 6.63791 23.5674 6.5983C22.5661 6.33419 21.5354 6.19917 20.5 6.19652C20.1102 6.19652 19.7091 6.19652 19.3307 6.25877C18.689 6.31671 18.055 6.43996 17.4383 6.6266C17.2914 6.66621 17.1445 6.71714 16.9977 6.76241L16.992 5.77776ZM10.5409 22.0585V18.7763C10.5369 16.525 11.2661 14.3338 12.618 12.5353C13.9698 10.7368 15.8705 9.42919 18.0314 8.81094H18.0879C18.5627 8.66682 19.0511 8.57201 19.5453 8.52799C19.8673 8.49404 20.1893 8.47706 20.5 8.47706C21.3394 8.475 22.1753 8.58539 22.9855 8.80528C25.113 9.34048 27.0022 10.5697 28.3554 12.2992C29.7085 14.0287 30.4486 16.1601 30.4591 18.3575V22.0585C30.4186 25.3638 31.518 28.5819 33.5716 31.1693H7.42836C9.48197 28.5819 10.5814 25.3638 10.5409 22.0585V22.0585ZM20.5 45.7693C19.3548 45.7681 18.2535 45.3276 17.4225 44.5383C16.5915 43.7489 16.0938 42.6707 16.0317 41.5252H24.9683C24.9062 42.6707 24.4085 43.7489 23.5775 44.5383C22.7465 45.3276 21.6452 45.7681 20.5 45.7693V45.7693ZM38.7404 36.998C38.7404 37.5984 38.5024 38.1741 38.0786 38.5986C37.6549 39.0231 37.0801 39.2616 36.4808 39.2616H4.51915C3.91987 39.2616 3.34514 39.0231 2.92139 38.5986C2.49764 38.1741 2.25958 37.5984 2.25958 36.998V35.6965C2.25958 35.0961 2.49764 34.5204 2.92139 34.0959C3.34514 33.6714 3.91987 33.4329 4.51915 33.4329H36.4808C37.0801 33.4329 37.6549 33.6714 38.0786 34.0959C38.5024 34.5204 38.7404 35.0961 38.7404 35.6965V36.998Z" fill="url(#paint0_linear)"/>
<defs>
<linearGradient id="paint0_linear" x1="0" y1="0" x2="44.6112" y2="3.63085" gradientUnits="userSpaceOnUse">
<stop stop-color="#B0F3F1"/>
<stop offset="1" stop-color="#FFCFDF"/>
</linearGradient>
</defs>
</svg>
