<svg width="49" height="48" viewBox="0 0 49 48" fill="none" xmlns="http://www.w3.org/2000/svg">
<path d="M48 24C48 36.6832 37.4982 47 24.5 47C11.5018 47 1 36.6832 1 24C1 11.3168 11.5018 1 24.5 1C37.4982 1 48 11.3168 48 24Z" stroke="url(#paint0_linear)" stroke-width="2"/>
<path d="M13.2432 22.7027H12.2432V23.7027H13.2432V22.7027ZM34.4324 22.7027V23.7027H35.4324V22.7027H34.4324ZM39.1913 19.6535C39.6568 19.9508 40.2751 19.8146 40.5724 19.3492C40.8698 18.8837 40.7335 18.2654 40.2681 17.9681L39.1913 19.6535ZM24.5 9.08105L25.0384 8.23835C24.7101 8.02862 24.2899 8.02862 23.9616 8.23835L24.5 9.08105ZM8.73189 17.9681C8.26648 18.2654 8.13022 18.8837 8.42756 19.3492C8.72489 19.8146 9.34322 19.9508 9.80864 19.6535L8.73189 17.9681ZM12.2432 11.027V22.7027H14.2432V11.027H12.2432ZM13.2432 23.7027H34.4324V21.7027H13.2432V23.7027ZM35.4324 22.7027V14.9189H33.4324V22.7027H35.4324ZM40.2681 17.9681L25.0384 8.23835L23.9616 9.92376L39.1913 19.6535L40.2681 17.9681ZM9.80864 19.6535L25.0384 9.92376L23.9616 8.23835L8.73189 17.9681L9.80864 19.6535ZM23.5 9.08105V30.4865H25.5V9.08105H23.5Z" fill="url(#paint1_linear)"/>
<path d="M20.732 33.988C20.46 33.656 20.124 33.49 19.724 33.49C19.548 33.49 19.384 33.522 19.232 33.586C19.084 33.65 18.956 33.738 18.848 33.85C18.74 33.958 18.654 34.088 18.59 34.24C18.53 34.392 18.5 34.556 18.5 34.732C18.5 34.912 18.53 35.078 18.59 35.23C18.654 35.382 18.74 35.514 18.848 35.626C18.96 35.738 19.09 35.826 19.238 35.89C19.386 35.954 19.546 35.986 19.718 35.986C20.094 35.986 20.432 35.826 20.732 35.506V36.898L20.612 36.94C20.432 37.004 20.264 37.05 20.108 37.078C19.952 37.11 19.798 37.126 19.646 37.126C19.334 37.126 19.034 37.068 18.746 36.952C18.462 36.832 18.21 36.666 17.99 36.454C17.774 36.238 17.6 35.984 17.468 35.692C17.336 35.396 17.27 35.074 17.27 34.726C17.27 34.378 17.334 34.06 17.462 33.772C17.594 33.48 17.768 33.23 17.984 33.022C18.204 32.81 18.458 32.646 18.746 32.53C19.034 32.41 19.336 32.35 19.652 32.35C19.832 32.35 20.008 32.37 20.18 32.41C20.356 32.446 20.54 32.504 20.732 32.584V33.988Z" fill="url(#paint2_linear)"/>
<path d="M22.5664 34.738C22.5664 34.918 22.6004 35.084 22.6684 35.236C22.7364 35.388 22.8284 35.52 22.9444 35.632C23.0604 35.744 23.1944 35.832 23.3464 35.896C23.5024 35.956 23.6664 35.986 23.8384 35.986C24.0104 35.986 24.1724 35.956 24.3244 35.896C24.4804 35.832 24.6164 35.744 24.7324 35.632C24.8524 35.52 24.9464 35.388 25.0144 35.236C25.0824 35.084 25.1164 34.918 25.1164 34.738C25.1164 34.558 25.0824 34.392 25.0144 34.24C24.9464 34.088 24.8524 33.956 24.7324 33.844C24.6164 33.732 24.4804 33.646 24.3244 33.586C24.1724 33.522 24.0104 33.49 23.8384 33.49C23.6664 33.49 23.5024 33.522 23.3464 33.586C23.1944 33.646 23.0604 33.732 22.9444 33.844C22.8284 33.956 22.7364 34.088 22.6684 34.24C22.6004 34.392 22.5664 34.558 22.5664 34.738ZM21.3364 34.738C21.3364 34.402 21.3984 34.09 21.5224 33.802C21.6464 33.51 21.8184 33.256 22.0384 33.04C22.2584 32.824 22.5204 32.656 22.8244 32.536C23.1324 32.412 23.4704 32.35 23.8384 32.35C24.2024 32.35 24.5384 32.412 24.8464 32.536C25.1544 32.656 25.4184 32.824 25.6384 33.04C25.8624 33.256 26.0364 33.51 26.1604 33.802C26.2844 34.09 26.3464 34.402 26.3464 34.738C26.3464 35.074 26.2844 35.388 26.1604 35.68C26.0364 35.968 25.8624 36.22 25.6384 36.436C25.4184 36.652 25.1544 36.822 24.8464 36.946C24.5384 37.066 24.2024 37.126 23.8384 37.126C23.4704 37.126 23.1324 37.066 22.8244 36.946C22.5204 36.822 22.2584 36.652 22.0384 36.436C21.8184 36.22 21.6464 35.968 21.5224 35.68C21.3984 35.388 21.3364 35.074 21.3364 34.738Z" fill="url(#paint3_linear)"/>
<path d="M28.2653 32.476V36.004H29.6753V37H27.0893V32.476H28.2653Z" fill="url(#paint4_linear)"/>
<path d="M30.1266 36.424C30.1266 36.328 30.1446 36.238 30.1806 36.154C30.2166 36.066 30.2666 35.99 30.3306 35.926C30.3946 35.862 30.4686 35.812 30.5526 35.776C30.6406 35.74 30.7326 35.722 30.8286 35.722C30.9246 35.722 31.0146 35.74 31.0986 35.776C31.1866 35.812 31.2626 35.862 31.3266 35.926C31.3906 35.99 31.4406 36.066 31.4766 36.154C31.5126 36.238 31.5306 36.328 31.5306 36.424C31.5306 36.52 31.5126 36.612 31.4766 36.7C31.4406 36.784 31.3906 36.858 31.3266 36.922C31.2626 36.986 31.1866 37.036 31.0986 37.072C31.0146 37.108 30.9246 37.126 30.8286 37.126C30.7326 37.126 30.6406 37.108 30.5526 37.072C30.4686 37.036 30.3946 36.986 30.3306 36.922C30.2666 36.858 30.2166 36.784 30.1806 36.7C30.1446 36.612 30.1266 36.52 30.1266 36.424Z" fill="url(#paint5_linear)"/>
<defs>
<linearGradient id="paint0_linear" x1="0" y1="0" x2="53.1659" y2="5.17142" gradientUnits="userSpaceOnUse">
<stop stop-color="#B0F3F1"/>
<stop offset="1" stop-color="#FFCFDF"/>
</linearGradient>
<linearGradient id="paint1_linear" x1="9.27026" y1="9.08105" x2="42.0298" y2="13.5228" gradientUnits="userSpaceOnUse">
<stop stop-color="#B0F3F1"/>
<stop offset="1" stop-color="#FFCFDF"/>
</linearGradient>
<linearGradient id="paint2_linear" x1="17.27" y1="32.35" x2="31.7198" y2="36.4611" gradientUnits="userSpaceOnUse">
<stop stop-color="#B0F3F1"/>
<stop offset="1" stop-color="#FFCFDF"/>
</linearGradient>
<linearGradient id="paint3_linear" x1="17.27" y1="32.35" x2="31.7198" y2="36.4611" gradientUnits="userSpaceOnUse">
<stop stop-color="#B0F3F1"/>
<stop offset="1" stop-color="#FFCFDF"/>
</linearGradient>
<linearGradient id="paint4_linear" x1="17.27" y1="32.35" x2="31.7198" y2="36.4611" gradientUnits="userSpaceOnUse">
<stop stop-color="#B0F3F1"/>
<stop offset="1" stop-color="#FFCFDF"/>
</linearGradient>
<linearGradient id="paint5_linear" x1="17.27" y1="32.35" x2="31.7198" y2="36.4611" gradientUnits="userSpaceOnUse">
<stop stop-color="#B0F3F1"/>
<stop offset="1" stop-color="#FFCFDF"/>
</linearGradient>
</defs>
</svg>
