<svg width="48" height="48" viewBox="0 0 48 48" fill="none" xmlns="http://www.w3.org/2000/svg">
<path d="M24 48C28.7467 48 33.3869 46.5924 37.3337 43.9553C41.2805 41.3181 44.3566 37.5698 46.1731 33.1844C47.9896 28.799 48.4649 23.9734 47.5388 19.3178C46.6128 14.6623 44.327 10.3859 40.9706 7.02945C37.6141 3.67299 33.3377 1.38721 28.6822 0.461164C24.0266 -0.464881 19.201 0.0103989 14.8156 1.8269C10.4302 3.6434 6.68188 6.71954 4.04473 10.6663C1.40757 14.6131 0 19.2533 0 24C0.00705827 30.363 2.53789 36.4634 7.03723 40.9628C11.5366 45.4621 17.637 47.9929 24 48ZM24 45.9573C19.4046 45.9612 14.9252 44.5147 11.2 41.824C11.2211 41.7421 11.2318 41.6579 11.232 41.5733C11.3003 38.2329 12.6752 35.0524 15.0617 32.7141C17.4482 30.3759 20.6562 29.0663 23.9973 29.0663C27.3384 29.0663 30.5464 30.3759 32.9329 32.7141C35.3195 35.0524 36.6944 38.2329 36.7627 41.5733C36.7628 41.6579 36.7736 41.7421 36.7947 41.824C33.0709 44.5136 28.5935 45.9601 24 45.9573ZM17.824 20.5867C17.8229 19.3637 18.1847 18.1678 18.8635 17.1505C19.5423 16.1332 20.5077 15.3401 21.6374 14.8716C22.7671 14.403 24.0104 14.2802 25.2099 14.5185C26.4095 14.7569 27.5114 15.3457 28.3762 16.2105C29.241 17.0753 29.8298 18.1772 30.0681 19.3767C30.3065 20.5763 30.1836 21.8196 29.7151 22.9493C29.2466 24.079 28.4535 25.0443 27.4362 25.7232C26.4188 26.402 25.223 26.7637 24 26.7627C22.3629 26.7598 20.7936 26.1083 19.636 24.9506C18.4784 23.793 17.8268 22.2238 17.824 20.5867ZM24 2.04268C28.4343 2.03985 32.7654 3.38032 36.4229 5.88752C40.0803 8.39472 42.8925 11.951 44.489 16.088C46.0854 20.2249 46.3913 24.7484 45.3662 29.0626C44.3412 33.3768 42.0333 37.2793 38.7467 40.256C38.4842 37.3507 37.3714 34.5872 35.5473 32.3107C33.7233 30.0342 31.2688 28.3456 28.4907 27.456C29.9738 26.4884 31.1048 25.0676 31.7151 23.4051C32.3255 21.7427 32.3825 19.9276 31.8778 18.2302C31.373 16.5327 30.3335 15.0437 28.914 13.9848C27.4945 12.926 25.7709 12.354 24 12.354C22.2291 12.354 20.5055 12.926 19.086 13.9848C17.6665 15.0437 16.627 16.5327 16.1222 18.2302C15.6175 19.9276 15.6745 21.7427 16.2848 23.4051C16.8952 25.0676 18.0261 26.4884 19.5093 27.456C16.7312 28.3456 14.2767 30.0342 12.4527 32.3107C10.6286 34.5872 9.51583 37.3507 9.25333 40.256C5.96667 37.2793 3.65881 33.3768 2.63376 29.0626C1.60872 24.7484 1.91457 20.2249 3.51103 16.088C5.10749 11.951 7.91967 8.39472 11.5771 5.88752C15.2346 3.38032 19.5657 2.03985 24 2.04268Z" fill="url(#paint0_linear)"/>
<defs>
<linearGradient id="paint0_linear" x1="0" y1="0" x2="52.1006" y2="4.96438" gradientUnits="userSpaceOnUse">
<stop stop-color="#B0F3F1"/>
<stop offset="1" stop-color="#FFCFDF"/>
</linearGradient>
</defs>
</svg>
