<svg width="44" height="44" viewBox="0 0 44 44" fill="none" xmlns="http://www.w3.org/2000/svg">
<g filter="url(#filter0_d)">
<path d="M23.0909 18.1818H19.0854L21.0414 16.2258L19.4988 14.6833L14.9091 19.2727L19.4988 23.8622L21.0414 22.3196L19.0854 20.3636H23.0909C24.5942 20.3636 25.8182 21.5871 25.8182 23.0909C25.8182 24.5947 24.5942 25.8182 23.0909 25.8182H18.7273V28H23.0909C25.798 28 28 25.798 28 23.0909C28 20.3838 25.798 18.1818 23.0909 18.1818ZM22 10C15.3831 10 10 15.3831 10 22C10 28.6169 15.3831 34 22 34C28.6169 34 34 28.6169 34 22C34 15.3831 28.6169 10 22 10ZM22 31.8182C16.5861 31.8182 12.1818 27.4136 12.1818 22C12.1818 16.5864 16.5861 12.1818 22 12.1818C27.4142 12.1818 31.8182 16.5864 31.8182 22C31.8182 27.4136 27.4142 31.8182 22 31.8182Z" fill="white"/>
<path d="M18.7318 17.8283L17.8783 18.6818H19.0854H23.0909C25.5219 18.6818 27.5 20.66 27.5 23.0909C27.5 25.5219 25.5219 27.5 23.0909 27.5H19.2273V26.3182H23.0909C24.8703 26.3182 26.3182 24.8709 26.3182 23.0909C26.3182 21.3109 24.8703 19.8636 23.0909 19.8636H19.0854H17.8783L18.7318 20.7172L20.3343 22.3196L19.4988 23.1551L15.6162 19.2727L19.4988 15.3904L20.3343 16.2258L18.7318 17.8283ZM10.5 22C10.5 15.6592 15.6592 10.5 22 10.5C28.3408 10.5 33.5 15.6592 33.5 22C33.5 28.3408 28.3408 33.5 22 33.5C15.6592 33.5 10.5 28.3408 10.5 22ZM11.6818 22C11.6818 27.6898 16.3099 32.3182 22 32.3182C27.6903 32.3182 32.3182 27.6898 32.3182 22C32.3182 16.3102 27.6903 11.6818 22 11.6818C16.3099 11.6818 11.6818 16.3102 11.6818 22Z" stroke="white"/>
</g>
<defs>
<filter id="filter0_d" x="0" y="0" width="44" height="44" filterUnits="userSpaceOnUse" color-interpolation-filters="sRGB">
<feFlood flood-opacity="0" result="BackgroundImageFix"/>
<feColorMatrix in="SourceAlpha" type="matrix" values="0 0 0 0 0 0 0 0 0 0 0 0 0 0 0 0 0 0 127 0"/>
<feOffset/>
<feGaussianBlur stdDeviation="5"/>
<feColorMatrix type="matrix" values="0 0 0 0 0 0 0 0 0 0 0 0 0 0 0 0 0 0 0.15 0"/>
<feBlend mode="normal" in2="BackgroundImageFix" result="effect1_dropShadow"/>
<feBlend mode="normal" in="SourceGraphic" in2="effect1_dropShadow" result="shape"/>
</filter>
</defs>
</svg>
