<svg width="48" height="48" viewBox="0 0 48 48" fill="none" xmlns="http://www.w3.org/2000/svg">
<path d="M22.3328 35.3025H22.333C25.7715 35.2986 29.0681 33.9309 31.4995 31.4995C33.9309 29.0681 35.2986 25.7715 35.3025 22.333V22.3328C35.3025 19.7676 34.5419 17.26 33.1167 15.1272C31.6916 12.9943 29.666 11.3319 27.2961 10.3503C24.9262 9.36865 22.3184 9.11181 19.8025 9.61225C17.2866 10.1127 14.9756 11.3479 13.1618 13.1618C11.3479 14.9756 10.1127 17.2866 9.61226 19.8025C9.11182 22.3184 9.36866 24.9262 10.3503 27.2961C11.332 29.666 12.9943 31.6916 15.1272 33.1167C17.26 34.5418 19.7676 35.3025 22.3328 35.3025ZM13.5758 9.22701C16.1678 7.49506 19.2152 6.57063 22.3327 6.57061C26.5117 6.57529 30.5181 8.23745 33.4731 11.1924C36.4281 14.1474 38.0903 18.154 38.095 22.333C38.0949 25.4504 37.1705 28.4977 35.4386 31.0898C33.7066 33.6818 31.2449 35.7021 28.3647 36.8951C25.4846 38.0881 22.3153 38.4002 19.2577 37.7921C16.2002 37.1839 13.3916 35.6827 11.1872 33.4783C8.98287 31.2739 7.48167 28.4654 6.87348 25.4078C6.26529 22.3503 6.57744 19.181 7.77044 16.3008C8.96344 13.4207 10.9837 10.959 13.5758 9.22701Z" fill="url(#paint0_linear)" stroke="black" stroke-width="0.4"/>
<path d="M41.4124 33.5832L41.3338 33.7166L41.4433 33.8262L46.4578 38.8399C47.3173 39.7011 47.8 40.868 47.8 42.0847C47.8 43.3014 47.3173 44.4683 46.4579 45.3295L45.3296 46.4578C44.4684 47.3173 43.3014 47.8 42.0847 47.8C40.8681 47.8 39.7011 47.3173 38.8399 46.4578L33.8262 41.4433L33.7166 41.3338L33.5832 41.4124C28.9411 44.1489 23.4604 45.0985 18.1683 44.0832C12.8763 43.0679 8.13613 40.1574 4.83642 35.8972C1.53671 31.6371 -0.0960396 26.3198 0.244205 20.9419C0.58445 15.5641 2.87433 10.495 6.68464 6.68464C10.495 2.87433 15.5641 0.58445 20.9419 0.244205C26.3198 -0.0960396 31.6371 1.53671 35.8972 4.83642C40.1574 8.13613 43.0679 12.8763 44.0832 18.1683C45.0985 23.4604 44.1489 28.9411 41.4124 33.5832ZM44.4837 43.3551L44.4839 43.3548C44.82 43.0176 45.0087 42.5609 45.0087 42.0847C45.0087 41.6086 44.82 41.1519 44.4839 40.8147L44.4837 40.8144L38.5672 34.8987L38.4258 35.0402L38.5672 34.8987C38.3382 34.6697 38.1958 34.3682 38.1646 34.0458C38.1334 33.7235 38.2152 33.4003 38.3961 33.1316L38.3962 33.1315C41.0787 29.1407 42.1794 24.2941 41.4837 19.5362C40.7881 14.7782 38.3459 10.4496 34.633 7.39395C30.9201 4.33827 26.2026 2.77438 21.3997 3.007C16.5967 3.23962 12.0524 5.25209 8.65227 8.65227C5.25209 12.0524 3.23962 16.5967 3.007 21.3997C2.77438 26.2026 4.33827 30.9201 7.39395 34.633C10.4496 38.3459 14.7782 40.7881 19.5362 41.4837C24.2941 42.1794 29.1407 41.0787 33.1315 38.3962L33.1316 38.3961C33.4003 38.2153 33.7234 38.1334 34.0458 38.1646C34.3682 38.1959 34.6697 38.3382 34.8986 38.5672L35.0401 38.4258L34.8986 38.5672L40.8143 44.4837L40.8146 44.4839C41.1518 44.82 41.6086 45.0087 42.0847 45.0087C42.5608 45.0087 43.0176 44.82 43.3548 44.4839L43.3551 44.4837L44.4837 43.3551Z" fill="url(#paint1_linear)" stroke="black" stroke-width="0.4"/>
<defs>
<linearGradient id="paint0_linear" x1="6.37061" y1="6.37061" x2="41.0222" y2="9.67237" gradientUnits="userSpaceOnUse">
<stop stop-color="#B0F3F1"/>
<stop offset="1" stop-color="#FFCFDF"/>
</linearGradient>
<linearGradient id="paint1_linear" x1="0" y1="0" x2="52.1006" y2="4.96438" gradientUnits="userSpaceOnUse">
<stop stop-color="#B0F3F1"/>
<stop offset="1" stop-color="#FFCFDF"/>
</linearGradient>
</defs>
</svg>
