<svg width="100" height="94" viewBox="0 0 100 94" fill="none" xmlns="http://www.w3.org/2000/svg">
<path d="M98.6182 13.8192L84.7122 0.691008C84.2432 0.248272 83.6082 0 82.9442 0C82.2802 0 81.6452 0.248272 81.1762 0.691008L6.68016 71.0162C6.65516 71.0398 6.63816 71.0681 6.61516 71.0917C6.55216 71.1559 6.49416 71.2239 6.43916 71.2956C6.39316 71.3551 6.34916 71.4145 6.31016 71.4759C6.26816 71.541 6.23216 71.61 6.19716 71.6798C6.15916 71.7553 6.12516 71.8318 6.09616 71.9101C6.08416 71.9432 6.06516 71.9715 6.05416 72.0064L0.103161 90.7335C0.103161 90.7335 0.103159 90.7354 0.102159 90.7373L0.0951592 90.758C0.0811592 90.8005 0.0801601 90.843 0.0691601 90.8855C0.0421601 90.9912 0.0151596 91.0969 0.00415961 91.2064C-0.00384039 91.2839 0.00216071 91.3603 0.00216071 91.4377C0.00216071 91.5142 -0.00284039 91.5897 0.00415961 91.6662C0.0161596 91.7804 0.0441604 91.8899 0.0721604 92.0004C0.0821604 92.0381 0.0831592 92.0759 0.0951592 92.1136C0.0961592 92.1174 0.0981608 92.1202 0.0991608 92.1231C0.111161 92.1608 0.130161 92.1948 0.144161 92.2316C0.182161 92.3308 0.223161 92.428 0.273161 92.5205C0.296161 92.562 0.32416 92.6017 0.35016 92.6423C0.40216 92.7235 0.45616 92.8027 0.51716 92.8773C0.55116 92.9179 0.58616 92.9566 0.62216 92.9953C0.68616 93.0633 0.753159 93.1275 0.824159 93.187C0.866159 93.2219 0.90716 93.2568 0.95116 93.2899C1.03716 93.3531 1.12816 93.4097 1.22216 93.4626C1.25716 93.4824 1.28816 93.5051 1.32516 93.5221C1.46016 93.5891 1.60116 93.6439 1.74816 93.6873C1.75616 93.6901 1.76416 93.6939 1.77216 93.6967C1.83216 93.7147 1.89316 93.7222 1.95316 93.7345C2.00616 93.7458 2.05816 93.76 2.11316 93.7685C2.23316 93.7864 2.35316 93.7949 2.47216 93.7958C2.47816 93.7958 2.48416 93.7968 2.49016 93.7968H2.49116C2.49716 93.7968 2.50416 93.7958 2.51016 93.7958C2.62916 93.7949 2.74916 93.7855 2.86916 93.7685C2.92316 93.76 2.97616 93.7458 3.03016 93.7345C3.09016 93.7213 3.15016 93.7147 3.21016 93.6967L23.0752 88.0724C23.1102 88.062 23.1402 88.045 23.1752 88.0337C23.2602 88.0063 23.3422 87.9732 23.4242 87.9355C23.4972 87.9034 23.5672 87.8694 23.6352 87.8316C23.7022 87.7929 23.7672 87.7514 23.8312 87.707C23.9052 87.6551 23.9752 87.6023 24.0422 87.5437C24.0692 87.5211 24.0992 87.5041 24.1252 87.4805L98.6182 17.1563C99.5952 16.2349 99.5952 14.7406 98.6182 13.8192ZM71.3572 16.6361L81.7282 26.4273L22.3552 82.4754L11.9842 72.6842L71.3572 16.6361ZM9.64016 77.1475L17.6272 84.6862L6.21816 87.9166L9.64016 77.1475ZM85.2632 23.0902L74.8922 13.2991L82.9452 5.69704L93.3162 15.4882L85.2632 23.0902Z" fill="url(#paint0_linear)"/>
<defs>
<linearGradient id="paint0_linear" x1="0" y1="0" x2="107.72" y2="10.8718" gradientUnits="userSpaceOnUse">
<stop stop-color="#B0F3F1"/>
<stop offset="1" stop-color="#FFCFDF"/>
</linearGradient>
</defs>
</svg>
